<svg xmlns="http://www.w3.org/2000/svg"  viewBox="0 0 24 24" width="50px" height="50px"><path d="M 13.283203 1.7246094 C 11.272645 1.7713212 9.3283181 2.8321981 8.2539062 4.6933594 L 8.0175781 5.0898438 L 7.8847656 5.0136719 C 7.1352305 4.5822534 6.2739566 4.4961243 5.4921875 4.7050781 C 4.7104184 4.9140319 4.0071518 5.4172959 3.5742188 6.1660156 L 0.79882812 10.962891 C -0.83938764 13.792318 0.14160377 17.441752 2.9765625 19.074219 L 4.7382812 20.087891 L 6.8730469 21.320312 L 7.7324219 21.814453 L 7.7324219 21.816406 C 7.743369 21.822726 7.7546485 21.827758 7.765625 21.833984 L 7.8007812 21.853516 L 7.8027344 21.851562 C 10.155083 23.160269 13.158663 22.340653 14.509766 20.001953 L 14.509766 20 L 15.236328 18.744141 L 15.765625 19.050781 L 15.767578 19.052734 C 17.267018 19.917237 19.212959 19.395621 20.078125 17.896484 L 23.333984 12.259766 C 24.692459 9.9065216 23.885663 6.8719436 21.544922 5.5 L 21.546875 5.4980469 C 21.541198 5.4947667 21.534982 5.4934865 21.529297 5.4902344 C 21.525192 5.4878489 21.521693 5.4847971 21.517578 5.4824219 L 18.521484 3.7519531 L 16.380859 2.515625 C 15.67214 2.1063222 14.913385 1.8617949 14.146484 1.7675781 C 13.858897 1.7322468 13.570426 1.7179363 13.283203 1.7246094 z M 13.128906 3.7226562 C 13.886567 3.6702474 14.668689 3.836751 15.380859 4.2480469 L 17.316406 5.3652344 C 16.542959 5.7440937 15.870516 6.3458944 15.410156 7.1425781 L 10.753906 15.205078 C 10.339891 15.921736 9.4543502 16.157816 8.7382812 15.744141 L 8.4902344 15.599609 L 8.7226562 15.197266 L 11.355469 10.650391 C 12.220664 9.1545054 11.695874 7.2091107 10.197266 6.3457031 L 9.75 6.0878906 L 9.9824219 5.6972656 L 9.9863281 5.6933594 C 10.671826 4.5058962 11.866138 3.8100043 13.128906 3.7226562 z M 19.123047 6.8964844 C 19.595183 6.8641365 20.082614 6.9703639 20.529297 7.2246094 C 21.946227 8.0521329 22.422962 9.8369585 21.601562 11.259766 L 18.345703 16.896484 C 18.021576 17.458123 17.333405 17.642885 16.769531 17.320312 L 16.236328 17.009766 L 19.089844 12.068359 L 19.089844 12.066406 C 19.957449 10.567154 19.436737 8.6197447 17.9375 7.7539062 L 17.935547 7.7519531 L 17.613281 7.5683594 C 18.034068 7.1744017 18.563456 6.9348241 19.123047 6.8964844 z"/></svg>